# xmcd CD database file
#
# Track frame offsets:
#	150
#	15320
#	35915
#	54122
#	81675
#	114115
#	142822
#	162557
#	187292
#	198747
#	223937
#	243025
#
# Disc length: 3406 seconds
#
# Revision: 0
# Processed by: cddbd v1.5.2PL0 Copyright (c) Steve Scherf et al.
# Submitted via: CDex 1.70beta2
#
DISCID=aa0d4c0c
DTITLE=Various Artist - Piano Love Letters Jazz and New Age CD2
DYEAR=2006
DGENRE=New Age
TTITLE0=Min Kim - I Miss You Part I
TTITLE1=Keith Jarrett - Everything I Love
TTITLE2=Bill Evans Trio - We Will Meet Again
TTITLE3=Bill Frisell and Fred Hersch - Someday My Prince Will Come
TTITLE4=Brad Mehldau Trio - I'll Be Seeing You
TTITLE5=Dave Brubeck Trio - Like Someone In Love
TTITLE6=Yoonchan Kwak - All The Things You Are
TTITLE7=Fred Hersch - Pretty Girls
TTITLE8=Pudding - If I Could Meet Again
TTITLE9=Claude Bolling Big Band - I Wish You Love
TTITLE10=Francis Lai - Love Story Main Theme
TTITLE11=Dooley Wilson - As Time Goes By
EXTD=YEAR: 2006
EXTT0=
EXTT1=
EXTT2=
EXTT3=
EXTT4=
EXTT5=
EXTT6=
EXTT7=
EXTT8=
EXTT9=
EXTT10=
EXTT11=
PLAYORDER=
